PathFileType	4	(X/Y/Z)	/Users/itak/Documents/Research/Walk-IL/dataset/trc/00077_00006.trc
DataRate	CameraRate	NumFrames	NumMarkers	Units	OrigDataRate	OrigDataStartFrame	OrigNumFrames
100.000000	100.000000	4	53	mm	100.000000	362	724
Frame#	Time	RPSI			LPSI			L3			STRN			T10			C7			CLAV			RBAK			LBAK			LSHO			LUPA			LAEL			LAOL			LWTS			LWPS			LFRA			LIFD			LHPS			LHTS			RSHO			RUPA			RAEL			RAOL			RWTS			RWPS			RFRA			RIFD			RHTS			RHPS			RBHD			LFHD			RFHD			LBHD			LHIP			RHIP			RASI			LASI			LKNE			LTHI			LANK			LTIP			LTOE			LMT1			LMT5			LHEE			RKNE			RTHI			RANK			RTIP			RTOE			RMT1			RMT5			RHEE			
		X1	Y1	Z1	X2	Y2	Z2	X3	Y3	Z3	X4	Y4	Z4	X5	Y5	Z5	X6	Y6	Z6	X7	Y7	Z7	X8	Y8	Z8	X9	Y9	Z9	X10	Y10	Z10	X11	Y11	Z11	X12	Y12	Z12	X13	Y13	Z13	X14	Y14	Z14	X15	Y15	Z15	X16	Y16	Z16	X17	Y17	Z17	X18	Y18	Z18	X19	Y19	Z19	X20	Y20	Z20	X21	Y21	Z21	X22	Y22	Z22	X23	Y23	Z23	X24	Y24	Z24	X25	Y25	Z25	X26	Y26	Z26	X27	Y27	Z27	X28	Y28	Z28	X29	Y29	Z29	X30	Y30	Z30	X31	Y31	Z31	X32	Y32	Z32	X33	Y33	Z33	X34	Y34	Z34	X35	Y35	Z35	X36	Y36	Z36	X37	Y37	Z37	X38	Y38	Z38	X39	Y39	Z39	X40	Y40	Z40	X41	Y41	Z41	X42	Y42	Z42	X43	Y43	Z43	X44	Y44	Z44	X45	Y45	Z45	X46	Y46	Z46	X47	Y47	Z47	X48	Y48	Z48	X49	Y49	Z49	X50	Y50	Z50	X51	Y51	Z51	X52	Y52	Z52	X53	Y53	Z53	

363	3.62	-223.6043395996094	1013.426818847656	-306.517822265625	-313.0056457519531	1010.767456054688	-455.9073486328125	-267.611328125	1075.692993164062	-388.6658325195312	-45.14687347412109	1265.382568359375	-516.7373046875	-283.1728210449219	1208.664916992188	-390.1737060546875	-226.5263671875	1473.738891601562	-426.5297546386719	-70.20993804931641	1380.557006835938	-506.7585754394531	-251.5608978271484	1338.278930664062	-327.7863159179688	-294.1376953125	1436.984741210938	-501.0283508300781	-241.5984954833984	1440.34521484375	-613.6075439453125	-313.5548706054688	1322.855590820312	-669.2040405273438	-344.5074157714844	1112.543212890625	-697.008056640625	-344.3782958984375	1095.719360351562	-591.1177368164062	-256.9738464355469	864.756591796875	-706.4628295898438	-340.7644958496094	860.6400756835938	-718.427001953125	-344.4443664550781	1002.942077636719	-717.1197509765625	-250.0483245849609	682.0908813476562	-695.2037353515625	-317.3527526855469	777.8602905273438	-737.2057495117188	-246.4410705566406	783.3469848632812	-725.7670288085938	-93.78139495849609	1438.755859375	-299.7315063476562	-79.63266754150391	1373.772094726562	-235.1002807617188	-106.4151611328125	1120.563232421875	-164.5724334716797	-134.5264434814453	1092.12841796875	-255.8633880615234	3.023895263671875	871.992919921875	-273.5866088867188	-33.42030334472656	851.4912719726562	-197.0004425048828	-91.17049407958984	1035.919311523438	-160.5670318603516	-18.00509452819824	690.193115234375	-309.6395263671875	22.11104774475098	769.5073852539062	-293.394775390625	-2.993681669235229	762.29833984375	-219.7428283691406	-176.3910064697266	1668.139404296875	-533.9088134765625	-23.63078498840332	1659.246337890625	-382.0239562988281	-0.9343635439872742	1684.2861328125	-503.5306091308594	-191.5167694091797	1633.614501953125	-401.6074523925781	-264.3779602050781	951.6160278320312	-586.2930908203125	-131.8202209472656	938.7318115234375	-265.8411560058594	-30.83905220031738	957.5203247070312	-345.2527160644531	-140.6707000732422	958.959228515625	-590.3682250976562	-90.67930603027344	512.5648193359375	-629.395751953125	-165.8024444580078	641.6900634765625	-635.4739990234375	-175.8112487792969	40.12241744995117	-671.2742919921875	-137.6533203125	267.6330261230469	-663.791748046875	28.17855262756348	40.83698654174805	-692.3191528320312	-10.52978420257568	45.52122116088867	-632.6646728515625	-79.38869476318359	30.31609535217285	-722.8881225585938	-216.0816802978516	41.79248046875	-588.9423828125	-55.47670745849609	488.8176879882812	-379.7979431152344	-53.96170043945312	757.6964721679688	-324.4178771972656	-411.3964538574219	186.4131469726562	-222.9073486328125	-127.3347091674805	390.1109924316406	-344.3711242675781	-342.1989135742188	47.38317489624023	-367.1695861816406	-387.1514892578125	101.0266876220703	-365.4267272949219	-352.4289245605469	91.58361053466797	-273.752197265625	-455.9419555664062	237.0602569580078	-249.6919555664062	
364	3.63	-218.6242218017578	1014.3251953125	-310.98681640625	-306.1112060546875	1011.946655273438	-461.2611389160156	-262.1622924804688	1077.3466796875	-393.8276977539062	-36.60434341430664	1266.271240234375	-518.6356811523438	-277.1282043457031	1209.946899414062	-396.8229370117188	-219.5506591796875	1474.941650390625	-432.2274475097656	-61.71852111816406	1381.476318359375	-509.2022399902344	-246.5817565917969	1339.555419921875	-333.9035034179688	-285.6849670410156	1438.192626953125	-508.0967102050781	-230.7031555175781	1441.3955078125	-619.6021728515625	-301.2654113769531	1323.880004882812	-677.0348510742188	-331.1546325683594	1113.5234375	-705.8338012695312	-334.0673217773438	1096.617309570312	-599.9696044921875	-243.5929107666016	865.760009765625	-713.2332153320312	-326.9279174804688	861.6846313476562	-727.484619140625	-330.614990234375	1003.972900390625	-725.9949340820312	-236.8173980712891	683.1199951171875	-702.48828125	-303.04052734375	778.9939575195312	-745.900634765625	-232.4834136962891	784.4623413085938	-732.5624389648438	-89.2979736328125	1439.76806640625	-302.7237854003906	-76.46494293212891	1374.844360351562	-237.8312530517578	-104.7549209594727	1121.893310546875	-167.1503295898438	-131.0854797363281	1093.208251953125	-258.8890686035156	6.566549301147461	873.0017700195312	-273.1264038085938	-31.49656105041504	852.6259765625	-197.3131713867188	-89.68289184570312	1037.286499023438	-162.6123657226562	-13.48556518554688	690.978759765625	-309.1697692871094	26.17655944824219	770.527099609375	-292.209716796875	-0.4951823055744171	763.4212646484375	-219.1690673828125	-166.5902709960938	1669.35595703125	-538.7774658203125	-16.64402008056641	1659.968505859375	-384.1460876464844	8.348320960998535	1684.831909179688	-505.267333984375	-184.2493591308594	1635.019409179688	-406.7678833007812	-256.2166442871094	952.6528930664062	-591.0631713867188	-126.8678512573242	939.9425048828125	-269.4046325683594	-25.31671905517578	958.9939575195312	-347.6510925292969	-132.4884643554688	959.9183349609375	-594.0106811523438	-86.75118255615234	512.0151977539062	-631.4368286132812	-160.3826751708984	641.9066772460938	-638.234130859375	-175.6725006103516	40.22270202636719	-671.1630859375	-135.7974395751953	267.3268127441406	-664.8414306640625	28.40859031677246	40.48071670532227	-692.237060546875	-10.38589763641357	45.37833404541016	-632.5211181640625	-79.24593353271484	30.25619125366211	-722.8361206054688	-215.8901672363281	41.93383407592773	-588.8219604492188	-38.83469390869141	491.5461120605469	-384.0857849121094	-45.13006210327148	760.03515625	-326.878173828125	-398.40283203125	191.7315216064453	-234.0643920898438	-111.1638870239258	393.3134155273438	-350.1085815429688	-318.5843811035156	50.29896926879883	-370.7449340820312	-365.7339477539062	102.2488555908203	-372.6719360351562	-333.6263122558594	98.05502319335938	-279.3025207519531	-443.6363220214844	240.0446929931641	-263.96142578125	
365	3.64	-213.6453399658203	1015.398254394531	-315.3298950195312	-299.1953125	1013.170593261719	-466.4690856933594	-256.683349609375	1078.982666015625	-398.828857421875	-28.16799926757812	1267.248413085938	-520.3936157226562	-271.0223083496094	1211.18701171875	-403.2100524902344	-212.6174774169922	1476.128051757812	-437.7383728027344	-53.33547592163086	1382.480834960938	-511.4629211425781	-241.6013946533203	1340.834838867188	-339.880615234375	-277.1961059570312	1439.412475585938	-514.924560546875	-219.8893585205078	1442.532592773438	-625.3069458007812	-288.9748229980469	1324.970825195312	-684.5396728515625	-317.5469360351562	1114.563598632812	-714.3471069335938	-323.4657592773438	1097.544799804688	-608.58349609375	-229.9931488037109	866.8037719726562	-719.7349243164062	-312.7967834472656	862.8384399414062	-736.3931274414062	-316.49365234375	1005.08642578125	-734.603271484375	-223.5810394287109	684.135986328125	-709.5729370117188	-288.4718627929688	780.2432861328125	-754.45654296875	-218.3141784667969	785.6253662109375	-739.1100463867188	-84.88287353515625	1440.786987304688	-305.6294860839844	-73.41323852539062	1375.960327148438	-240.4756011962891	-103.3584518432617	1123.284912109375	-169.6891937255859	-127.7704925537109	1094.337036132812	-261.88720703125	10.01792907714844	874.0848999023438	-272.3935241699219	-29.77334022521973	853.8488159179688	-197.4290771484375	-88.46871948242188	1038.713012695312	-164.5907135009766	-8.914880752563477	691.77294921875	-308.3097229003906	30.22906494140625	771.6270751953125	-290.6380310058594	1.876930475234985	764.639892578125	-218.2864227294922	-156.7526702880859	1670.571411132812	-543.4193115234375	-9.650029182434082	1660.689331054688	-386.0912170410156	17.63946533203125	1685.328002929688	-506.7993469238281	-176.9320220947266	1636.47412109375	-411.7344360351562	-248.0771331787109	953.6738891601562	-595.6765747070312	-121.9070434570312	941.3758544921875	-272.7281494140625	-19.88065338134766	960.5820922851562	-349.9405517578125	-124.3934326171875	960.8639526367188	-597.45361328125	-82.89485931396484	511.4427795410156	-633.2694702148438	-154.9104156494141	642.1506958007812	-640.8662719726562	-175.531005859375	40.34049606323242	-671.0352783203125	-133.8916778564453	267.0330200195312	-665.774169921875	28.63675498962402	40.2191276550293	-692.1324462890625	-10.2496395111084	45.21872329711914	-632.3788452148438	-79.10170745849609	30.22229194641113	-722.7669067382812	-215.6558685302734	42.08624267578125	-588.6903076171875	-22.3453197479248	494.6095275878906	-387.8781433105469	-36.39532089233398	762.5416870117188	-329.0379638671875	-384.4647216796875	195.6844787597656	-245.6910095214844	-94.99259948730469	396.5997924804688	-355.4676513671875	-294.3469848632812	53.22362518310547	-375.0937805175781	-343.60009765625	103.0717391967773	-380.3387145996094	-314.0210266113281	103.7413024902344	-285.6961669921875	-430.3788452148438	241.5614013671875	-278.284423828125	
366	3.65	-208.7017517089844	1016.571044921875	-319.5640869140625	-292.2562561035156	1014.402404785156	-471.555908203125	-251.1435394287109	1080.578735351562	-403.7131652832031	-19.83720016479492	1268.294311523438	-522.0133056640625	-264.8357849121094	1212.391845703125	-409.3595275878906	-205.6922760009766	1477.294555664062	-443.07080078125	-45.05164337158203	1383.553588867188	-513.552001953125	-236.6089782714844	1342.115600585938	-345.7265014648438	-268.6619873046875	1440.637451171875	-521.5164794921875	-209.1634979248047	1443.74560546875	-630.730712890625	-276.7123718261719	1326.126098632812	-691.714599609375	-303.7570190429688	1115.662719726562	-722.5146484375	-312.5904541015625	1098.498168945312	-616.931396484375	-216.1863708496094	867.9012451171875	-725.966552734375	-298.3948364257812	864.0953369140625	-745.0979614257812	-302.1388244628906	1006.27490234375	-742.9102172851562	-210.2929840087891	685.1600341796875	-716.4461059570312	-273.6498107910156	781.6024169921875	-762.8211059570312	-203.9236907958984	786.8528442382812	-745.39599609375	-80.51818084716797	1441.817504882812	-308.4627990722656	-70.45278167724609	1377.12646484375	-243.0435485839844	-102.1820449829102	1124.742065429688	-172.2098693847656	-124.5511779785156	1095.52099609375	-264.8526000976562	13.37142181396484	875.2344360351562	-271.4320373535156	-28.23308753967285	855.1617431640625	-197.3815460205078	-87.48259735107422	1040.201293945312	-166.5214385986328	-4.395072937011719	692.5817260742188	-307.0790710449219	34.2009391784668	772.7752075195312	-288.72705078125	4.100018978118896	765.9505004882812	-217.125	-146.8873901367188	1671.776977539062	-547.83203125	-2.650651454925537	1661.401611328125	-387.8649291992188	26.92715072631836	1685.76806640625	-508.1272583007812	-169.5725250244141	1637.960327148438	-416.5083618164062	-239.9396820068359	954.6618041992188	-600.153564453125	-116.9681015014648	942.9658813476562	-275.8301696777344	-14.52700710296631	962.253662109375	-352.0977783203125	-116.3516693115234	961.765380859375	-600.6868286132812	-79.10588073730469	510.8418579101562	-634.917236328125	-149.3844604492188	642.39697265625	-643.377685546875	-175.3773498535156	40.48102188110352	-670.8807983398438	-131.9795379638672	266.7437744140625	-666.5885620117188	28.87939071655273	40.00747680664062	-692.0189208984375	-10.10084247589111	45.02694702148438	-632.2406005859375	-78.95268249511719	30.20942115783691	-722.6856689453125	-215.3775939941406	42.25385284423828	-588.5394287109375	-6.071659564971924	497.9632873535156	-391.1784362792969	-27.71066474914551	765.2230834960938	-330.9752502441406	-369.5548400878906	198.1820678710938	-257.6155090332031	-78.845703125	399.897216796875	-360.4470520019531	-269.6686401367188	56.0001220703125	-380.2745666503906	-320.8479309082031	103.5114974975586	-388.4464111328125	-293.7920837402344	108.4333419799805	-292.9080810546875	-416.1040954589844	241.6092529296875	-292.4940185546875	
